<svg height="512" viewBox="0 0 128 128" width="512" xmlns="http://www.w3.org/2000/svg"><g id="number"><text fill="#24253a" font-family="MyriadPro-Regular, Myriad Pro" font-size="40" letter-spacing=".002em" transform="translate(43.419 -510.265)">10<tspan x="0" y="228">20</tspan><tspan x="0" y="456">30</tspan><tspan x="0" y="684">40</tspan><tspan x="0" y="912">50</tspan><tspan x="0" y="1140">60</tspan><tspan x="0" y="1368">70</tspan><tspan x="0" y="1596">80</tspan><tspan x="0" y="1824">90</tspan><tspan x="-10.299" y="2052">100</tspan><tspan x="-10.299" y="2280">110</tspan><tspan x="-10.299" y="2508">120</tspan><tspan x="-10.299" y="2736">130</tspan><tspan x="-10.299" y="2964">140</tspan><tspan x="-10.299" y="3192">150</tspan><tspan x="-10.299" y="3420">160</tspan><tspan x="-10.299" y="3648">170</tspan><tspan x="-10.299" y="3876">180</tspan><tspan x="-10.299" y="4104">190</tspan><tspan x="-10.299" y="4332">200</tspan><tspan x="-10.299" y="4560">210</tspan><tspan x="-10.299" y="4788">220</tspan><tspan x="-10.299" y="5016">230</tspan><tspan x="-10.299" y="5244">240</tspan><tspan x="-10.299" y="5472">250</tspan></text></g><g id="Circle_Grid" data-name="Circle Grid"><circle cx="64" cy="64" fill="#2cbfae" r="64"/></g><g id="icon"><path d="m32.218 104.5 6.363-7.095 6.362 7.095 6.359-7.095 6.353 7.095 6.356-7.095 6.354 7.095 6.355-7.095 6.354 7.095 6.352-7.095 6.356 7.095v-81l-6.363 7.095-6.362-7.095-6.359 7.095-6.353-7.095-6.356 7.095-6.354-7.095-6.355 7.095-6.354-7.095-6.352 7.095-6.356-7.095z" fill="#eeefee"/><g fill="#dbd8dd"><path d="m38.834 38.169h50.331v2.882h-50.331z"/><path d="m38.834 47.925h50.331v2.882h-50.331z"/><path d="m38.834 57.681h50.331v2.882h-50.331z"/><path d="m38.834 67.437h35.697v2.882h-35.697z"/><path d="m38.834 77.193h30.376v2.882h-30.376z"/><path d="m38.834 86.948h35.697v2.882h-35.697z"/></g><path d="m81.274 89.831v-2.6a7.5 7.5 0 0 1 -3.938-1.131l.619-1.724a6.858 6.858 0 0 0 3.707 1.106c1.827 0 3.062-1.055 3.062-2.522 0-1.416-1-2.291-2.909-3.063-2.624-1.029-4.246-2.213-4.246-4.452a4.221 4.221 0 0 1 3.885-4.145v-2.6h1.6v2.5a6.848 6.848 0 0 1 3.345.9l-.643 1.7a6.218 6.218 0 0 0 -3.242-.875c-1.983 0-2.729 1.185-2.729 2.214 0 1.338.951 2.007 3.192 2.934 2.651 1.081 3.988 2.419 3.988 4.71a4.477 4.477 0 0 1 -4.065 4.372v2.676z" fill="#2cbfae"/></g></svg>