<svg height="512pt" viewBox="-47 0 512 512" width="512pt" xmlns="http://www.w3.org/2000/svg"><path d="m59.734375 119.464844h-17.066406c-4.714844 0-8.535157 3.824218-8.535157 8.535156s3.820313 8.535156 8.535157 8.535156h17.066406c4.710937 0 8.53125-3.824218 8.53125-8.535156s-3.820313-8.535156-8.53125-8.535156zm0 0"/><path d="m93.867188 136.535156h59.734374c4.710938 0 8.53125-3.824218 8.53125-8.535156s-3.820312-8.535156-8.53125-8.535156h-59.734374c-4.714844 0-8.535157 3.824218-8.535157 8.535156s3.820313 8.535156 8.535157 8.535156zm0 0"/><path d="m59.734375 162.132812h-17.066406c-4.714844 0-8.535157 3.820313-8.535157 8.535157 0 4.710937 3.820313 8.53125 8.535157 8.53125h17.066406c4.710937 0 8.53125-3.820313 8.53125-8.53125 0-4.714844-3.820313-8.535157-8.53125-8.535157zm0 0"/><path d="m170.667969 162.132812h-76.800781c-4.714844 0-8.535157 3.820313-8.535157 8.535157 0 4.710937 3.820313 8.53125 8.535157 8.53125h76.800781c4.710937 0 8.53125-3.820313 8.53125-8.53125 0-4.714844-3.820313-8.535157-8.53125-8.535157zm0 0"/><path d="m59.734375 204.800781h-17.066406c-4.714844 0-8.535157 3.820313-8.535157 8.53125 0 4.714844 3.820313 8.535157 8.535157 8.535157h17.066406c4.710937 0 8.53125-3.820313 8.53125-8.535157 0-4.710937-3.820313-8.53125-8.53125-8.53125zm0 0"/><path d="m170.667969 204.800781h-76.800781c-4.714844 0-8.535157 3.820313-8.535157 8.53125 0 4.714844 3.820313 8.535157 8.535157 8.535157h76.800781c4.710937 0 8.53125-3.820313 8.53125-8.535157 0-4.710937-3.820313-8.53125-8.53125-8.53125zm0 0"/><path d="m42.667969 298.667969c-4.714844 0-8.535157 3.820312-8.535157 8.53125v8.535156c0 4.710937 3.820313 8.53125 8.535157 8.53125 4.710937 0 8.53125-3.820313 8.53125-8.53125v-8.535156c0-4.710938-3.820313-8.53125-8.53125-8.53125zm0 0"/><path d="m42.667969 341.332031c-4.714844 0-8.535157 3.820313-8.535157 8.535157v51.199218c0 4.714844 3.820313 8.535156 8.535157 8.535156 4.710937 0 8.53125-3.820312 8.53125-8.535156v-51.199218c0-4.714844-3.820313-8.535157-8.53125-8.535157zm0 0"/><path d="m392.535156 247.464844v-93.863282c14.136719 0 25.597656-11.464843 25.597656-25.601562s-11.460937-25.601562-25.597656-25.601562h-85.335937v-25.597657c0-.1875-.09375-.34375-.101563-.53125-.050781-.765625-.207031-1.523437-.460937-2.25-.082031-.273437-.179688-.542969-.289063-.804687-.402344-.878906-.953125-1.6875-1.621094-2.386719l-68.269531-68.269531c-.722656-.710938-1.566406-1.289063-2.488281-1.707032-.242188-.101562-.492188-.1875-.746094-.261718-.757812-.273438-1.554687-.433594-2.363281-.480469-.160156-.0234375-.296875-.109375-.460937-.109375h-196.265626c-18.851562 0-34.132812 15.28125-34.132812 34.132812v375.46875c0 18.851563 15.28125 34.132813 34.132812 34.132813h170.667969v17.066406c-14.140625 0-25.601562 11.460938-25.601562 25.597657 0 14.140624 11.460937 25.601562 25.601562 25.601562h187.734375c14.136719 0 25.597656-11.460938 25.597656-25.601562 0-14.136719-11.460937-25.597657-25.597656-25.597657v-93.867187c.085938-24.933594-13.554687-47.890625-35.492187-59.734375 21.9375-11.84375 35.578125-34.800781 35.492187-59.734375zm8.53125-119.464844c0 4.710938-3.820312 8.535156-8.53125 8.535156h-187.734375c-4.714843 0-8.535156-3.824218-8.535156-8.535156s3.820313-8.535156 8.535156-8.535156h187.734375c4.710938 0 8.53125 3.824218 8.53125 8.535156zm-162.132812-98.867188 39.132812 39.132813h-34.011718c-2.828126 0-5.121094-2.292969-5.121094-5.117187zm-204.800782 397.535157c-9.425781 0-17.066406-7.640625-17.066406-17.066407v-375.46875c0-9.425781 7.640625-17.066406 17.066406-17.066406h187.734376v46.082032c0 12.25 9.933593 22.183593 22.1875 22.183593h46.078124v17.066407h-85.332031c-14.140625 0-25.601562 11.464843-25.601562 25.601562s11.460937 25.601562 25.601562 25.601562v93.863282c.015625 24.851562 13.53125 47.730468 35.292969 59.734375-21.761719 12.003906-35.277344 34.882812-35.292969 59.734375v59.734375zm366.933594 59.730469c0 4.714843-3.820312 8.535156-8.53125 8.535156h-187.734375c-4.714843 0-8.535156-3.820313-8.535156-8.535156 0-4.710938 3.820313-8.53125 8.535156-8.53125h187.734375c4.710938 0 8.53125 3.820312 8.53125 8.53125zm-62.207031-189.839844c-4.734375 1.414062-9.652344 2.125-14.59375 2.109375-4.710937 0-8.53125 3.820312-8.53125 8.53125 0 4.714843 3.820313 8.535156 8.53125 8.535156 13.585937-.019531 26.621094 5.367187 36.226563 14.972656 9.605468 9.605469 14.996093 22.640625 14.972656 36.226563l.003906 93.867187h-153.601562v-93.867187c.027343-28.265625 22.933593-51.171875 51.199218-51.199219 4.714844 0 8.535156-3.820313 8.535156-8.535156 0-4.710938-3.820312-8.53125-8.535156-8.53125-28.265625-.03125-51.171875-22.9375-51.199218-51.203125v-93.863282h153.601562l-.003906 93.863282c.117187 22.699218-14.820313 42.730468-36.605469 49.09375zm0 0"/><path d="m349.867188 204.800781h-102.402344c-4.710938 0-8.53125 3.820313-8.53125 8.53125v34.132813c0 18.851562 15.28125 34.136718 34.132812 34.136718h17.066406v34.132813c0 4.710937 3.820313 8.53125 8.535157 8.53125 4.710937 0 8.53125-3.820313 8.53125-8.53125v-34.132813h17.066406c18.851563 0 34.132813-15.285156 34.132813-34.136718v-34.132813c0-4.710937-3.820313-8.53125-8.53125-8.53125zm-8.535157 42.664063c0 9.425781-7.640625 17.070312-17.066406 17.070312h-51.199219c-9.425781 0-17.066406-7.644531-17.066406-17.070312v-25.597656h85.332031zm0 0"/><path d="m307.199219 349.867188c0-4.714844-3.820313-8.535157-8.53125-8.535157-4.714844 0-8.535157 3.820313-8.535157 8.535157v17.066406h-17.066406c-18.851562 0-34.132812 15.28125-34.132812 34.132812v34.132813c0 4.714843 3.820312 8.535156 8.53125 8.535156h102.402344c4.710937 0 8.53125-3.820313 8.53125-8.535156v-34.132813c0-18.851562-15.28125-34.132812-34.132813-34.132812h-17.066406zm34.132812 51.199218v25.601563h-85.332031v-25.601563c0-9.425781 7.640625-17.066406 17.066406-17.066406h51.199219c9.425781 0 17.066406 7.640625 17.066406 17.066406zm0 0"/></svg>